<svg width="496" height="109" viewBox="0 0 496 109" fill="none" xmlns="http://www.w3.org/2000/svg">
<path d="M102.65 107H67.85V69.05H35.3V107H0.5V1.84999H35.3V42.65H67.85V1.84999H102.65V107Z" fill="#0254CF"/>
<path d="M173.438 0.799999C189.488 0.799999 207.038 8.29999 217.838 20L197.738 43.85C191.438 35.3 181.988 29.75 173.888 29.75C161.288 29.75 152.138 39.8 152.138 53.75C152.138 67.85 161.288 78.05 173.888 78.05C181.388 78.05 190.838 73.4 197.738 66.05L217.838 87.5C206.138 100.25 188.288 108.5 172.088 108.5C139.838 108.5 116.438 85.55 116.438 54.2C116.438 23.3 140.438 0.799999 173.438 0.799999Z" fill="black"/>
<path d="M269.609 23.45C293.309 23.45 307.409 34.55 307.409 53.9V107H274.259V98.15C269.459 104.75 261.659 108.5 251.159 108.5C233.759 108.5 223.709 98.3 223.709 82.7C223.709 66.5 234.659 57.95 255.509 57.65H274.259C274.109 51.95 269.759 48.65 261.509 48.65C255.359 48.65 245.909 50.45 236.609 53.9L229.109 31.4C243.059 26.3 257.459 23.45 269.609 23.45ZM262.859 87.05C267.209 87.05 271.559 84.8 274.259 80.75V73.25H262.559C257.909 73.25 255.359 75.5 255.359 79.85C255.359 84.35 258.059 87.05 262.859 87.05ZM359.301 23.45C372.351 23.45 385.101 26.9 397.401 33.8L386.301 54.65C374.151 48.65 364.851 45.65 358.551 45.65C355.701 45.65 353.901 46.7 353.901 48.35C353.901 56 396.501 53 396.501 80.6C396.501 97.55 381.951 108.5 359.301 108.5C344.151 108.5 330.651 104.6 319.251 96.8L329.451 75.8C340.401 82.55 350.601 86 359.751 86C362.901 86 364.851 85.1 364.851 83.6C364.851 76.4 323.151 79.55 323.151 51.8C323.151 34.55 337.401 23.45 359.301 23.45ZM450.265 23.75C478.915 23.75 495.715 43.25 493.915 73.55H440.515C442.765 80 447.565 83.3 454.165 83.3C459.865 83.3 465.715 80.75 470.815 75.95L488.365 93.2C479.665 102.8 467.065 108.2 451.165 108.2C423.115 108.2 406.465 91.7 406.465 66.35C406.465 40.4 423.865 23.75 450.265 23.75ZM439.765 57.95H460.165C460.615 51.2 456.415 46.25 450.565 46.25C444.715 46.25 441.115 51.05 439.765 57.95Z" fill="#F36F21"/>
</svg>
